<?xml version="1.0" encoding="utf-8"?>
<!-- Generator: Adobe Illustrator 15.0.0, SVG Export Plug-In . SVG Version: 6.00 Build 0)  -->
<!DOCTYPE svg PUBLIC "-//W3C//DTD SVG 1.1//EN" "http://www.w3.org/Graphics/SVG/1.1/DTD/svg11.dtd">
<svg version="1.1" id="Layer_1_copy" xmlns="http://www.w3.org/2000/svg" xmlns:xlink="http://www.w3.org/1999/xlink" x="0px"
	 y="0px" width="751.698px" height="130.065px" viewBox="0 0 751.698 130.065" enable-background="new 0 0 751.698 130.065"
	 xml:space="preserve">
<g>
	<g>
		<polygon points="275.75,65.037 324.541,16.246 324.541,16.242 226.959,16.242 226.959,16.245 		"/>
		<polygon points="275.75,80.561 226.959,31.77 226.959,113.825 324.541,113.825 324.541,31.771 		"/>
	</g>
	<g>
		<polygon points="17.186,24.444 17.186,113.825 96.851,113.825 		"/>
		<polygon points="104.169,105.536 104.169,16.242 24.581,16.242 		"/>
	</g>
	<g>
		<path d="M130.615,103.551c9.237,8.393,21.506,13.506,34.968,13.506c28.733,0,52.025-23.293,52.025-52.025
			c0-11.317-3.625-21.78-9.76-30.318L130.615,103.551z"/>
		<path d="M200.552,26.512c-9.238-8.391-21.506-13.505-34.969-13.505c-28.732,0-52.024,23.293-52.024,52.025
			c0,11.316,3.624,21.779,9.759,30.318L200.552,26.512z"/>
	</g>
	<g>
		<path d="M447.354,32.773v81.052h36.593v-0.002h0.001c10.358,0,19.955-3.236,27.854-8.742L447.354,32.773z"/>
		<path d="M520.059,97.844c7.879-8.666,12.682-20.178,12.682-32.812c0-26.946-21.846-48.792-48.792-48.792
			c-0.011,0-0.022,0.002-0.033,0.002h-36.561L520.059,97.844z"/>
	</g>
	<g>
		<polygon points="385.9,98.297 417.059,67.139 385.9,13.169 354.741,67.139 		"/>
		<polygon points="422.74,76.981 385.9,113.823 444.012,113.823 		"/>
		<polygon points="327.787,113.823 385.9,113.823 349.058,76.981 		"/>
	</g>
	<g>
		<path fill="#1F1E21" d="M579.476,113.818h-12.172V16.184h12.172V113.818z"/>
		<path fill="#1F1E21" d="M668.421,34.83c-6.994-6.215-16.575-9.582-25.77-9.582c-21.884,0-38.587,18.258-38.587,39.883
			c0,21.364,16.574,39.622,38.328,39.622c9.582,0,18.775-3.625,26.028-10.099v14.371c-7.512,4.403-17.094,6.864-25.64,6.864
			c-27.84,0-50.89-22.142-50.89-50.371c0-28.875,23.179-51.407,51.926-51.407c8.545,0,17.221,2.072,24.604,6.604V34.83z"/>
		<path fill="#1F1E21" d="M712.284,113.818h-12.171V27.319h-23.179V16.184h58.528v11.135h-23.179V113.818z"/>
	</g>
</g>
</svg>
